<svg width="30" height="31" viewBox="0 0 30 31" fill="none" xmlns="http://www.w3.org/2000/svg">
<path d="M14.9994 2.99939C10.0069 2.99939 5.94531 7.06101 5.94531 12.0534C5.94531 18.2491 14.0478 27.3448 14.3928 27.7289C14.7168 28.0898 15.2825 28.0891 15.606 27.7289C15.9509 27.3448 24.0534 18.2491 24.0534 12.0534C24.0533 7.06101 19.9918 2.99939 14.9994 2.99939ZM14.9994 16.6088C12.4875 16.6088 10.4441 14.5653 10.4441 12.0534C10.4441 9.54158 12.4876 7.49811 14.9994 7.49811C17.5111 7.49811 19.5546 9.54163 19.5546 12.0534C19.5546 14.5653 17.5111 16.6088 14.9994 16.6088Z" fill="#FF0027"/>
</svg>
