<svg width="28" height="30" viewBox="0 0 28 30" fill="none" xmlns="http://www.w3.org/2000/svg">
<path fill-rule="evenodd" clip-rule="evenodd" d="M9.83645 0.124765C9.53528 0.357786 8.0976 1.20391 7.37617 1.57266C5.4762 2.54392 3.23848 3.2537 1.38318 3.47369C1.05356 3.5128 0.719974 3.55642 0.641939 3.57067L0.5 3.59663V9.56805C0.5 13.3883 0.524224 15.7526 0.567311 16.1311C1.01489 20.0653 3.65913 23.9972 7.89257 27.0237C9.61389 28.2543 11.6592 29.2795 13.5476 29.8582L14.01 30L14.9355 29.6997C15.9645 29.3658 17.7237 28.5436 18.7842 27.9009C23.1653 25.2456 26.3683 21.2294 27.2374 17.3014C27.4842 16.1858 27.5 15.7201 27.5 9.56805V3.59663L27.3581 3.57067C27.28 3.55642 26.9464 3.5128 26.6168 3.47369C25.3175 3.31962 23.7478 2.90152 22.2773 2.31778C21.0068 1.81342 19.875 1.22566 18.6185 0.417427L17.9694 0L13.9818 0.00134027C10.0876 0.00268052 9.99044 0.00554379 9.83645 0.124765ZM15.4003 6.24606C17.0188 6.51947 18.4116 7.22968 19.6226 8.39917C21.1894 9.91219 21.9543 11.6935 21.9543 13.829C21.9543 15.9644 21.1894 17.7457 19.6226 19.2587C18.0491 20.7783 16.2072 21.5129 13.9754 21.5109C11.7875 21.509 9.9365 20.7644 8.37738 19.2587C6.811 17.7461 6.0449 15.9626 6.0449 13.829C6.0449 11.6953 6.811 9.91183 8.37738 8.39917C9.56159 7.25563 10.8448 6.5866 12.4544 6.27365C13.188 6.13098 14.6389 6.11739 15.4003 6.24606ZM18.1341 10.2396C18.0083 10.2749 17.056 11.152 15.2322 12.9123L12.5175 15.5324L11.3505 14.1019C10.5309 13.0974 10.1199 12.6423 9.97006 12.5734C9.37884 12.3016 8.68926 12.8904 8.90432 13.4834C9.01099 13.7773 11.8662 17.259 12.0765 17.3515C12.3651 17.4785 12.6968 17.4395 12.9654 17.247C13.1007 17.15 14.522 15.7998 16.1239 14.2466C19.3476 11.1206 19.3146 11.1606 19.0706 10.6862C18.8759 10.3076 18.5116 10.1339 18.1341 10.2396Z" fill="white"/>
</svg>
