<svg width="18" height="18" viewBox="0 0 18 18" fill="none" xmlns="http://www.w3.org/2000/svg">
<path d="M9.92521 0C10.9377 0.00269994 11.4515 0.00809981 11.8952 0.0206995L12.0698 0.0269993C12.2714 0.0341992 12.4703 0.0431989 12.7106 0.0539987C13.6681 0.0989976 14.3215 0.250194 14.8948 0.472489C15.4887 0.701084 15.9891 1.01068 16.4895 1.51016C16.9471 1.96006 17.3012 2.50427 17.5271 3.10493C17.7494 3.67821 17.9006 4.3316 17.9456 5.29008C17.9564 5.52947 17.9654 5.72837 17.9726 5.93086L17.978 6.10546C17.9915 6.54825 17.9969 7.06214 17.9987 8.07461L17.9996 8.746V9.92497C18.0018 10.5814 17.9949 11.2379 17.9789 11.8941L17.9735 12.0687C17.9663 12.2712 17.9573 12.4701 17.9465 12.7095C17.9015 13.668 17.7485 14.3205 17.5271 14.8947C17.3018 15.4956 16.9477 16.04 16.4895 16.4894C16.0395 16.9469 15.4953 17.301 14.8948 17.5271C14.3215 17.7494 13.6681 17.9006 12.7106 17.9456C12.497 17.9556 12.2834 17.9646 12.0698 17.9726L11.8952 17.978C11.4515 17.9906 10.9377 17.9969 9.92521 17.9987L9.25385 17.9996H8.07581C7.41907 18.0018 6.76234 17.9949 6.10581 17.9789L5.93122 17.9735C5.71758 17.9654 5.50398 17.9561 5.29045 17.9456C4.3329 17.9006 3.67953 17.7494 3.10536 17.5271C2.50479 17.3015 1.96081 16.9474 1.51154 16.4894C1.05351 16.0397 0.699085 15.4954 0.472995 14.8947C0.250707 14.3214 0.0995141 13.668 0.0545165 12.7095C0.0444899 12.496 0.0354903 12.2824 0.0275179 12.0687L0.0230182 11.8941C0.0064339 11.2379 -0.00106652 10.5814 0.000519274 9.92497V8.07461C-0.00199247 7.41817 0.0046079 6.76172 0.0203183 6.10546L0.026618 5.93086C0.0338176 5.72837 0.0428171 5.52947 0.0536166 5.29008C0.0986143 4.3316 0.249806 3.67911 0.472095 3.10493C0.698086 2.50366 1.05321 1.95928 1.51244 1.51016C1.9616 1.0525 2.50522 0.698372 3.10536 0.472489C3.67953 0.250194 4.332 0.0989976 5.29045 0.0539987C5.52984 0.0431989 5.72963 0.0341992 5.93122 0.0269993L6.10581 0.0215994C6.76205 0.00560931 7.41848 -0.0012912 8.07491 0.000899914L9.92521 0ZM9.00006 4.4999C7.80665 4.4999 6.66211 4.97399 5.81824 5.81788C4.97437 6.66178 4.50029 7.80634 4.50029 8.99979C4.50029 10.1932 4.97437 11.3378 5.81824 12.1817C6.66211 13.0256 7.80665 13.4997 9.00006 13.4997C10.1935 13.4997 11.338 13.0256 12.1819 12.1817C13.0257 11.3378 13.4998 10.1932 13.4998 8.99979C13.4998 7.80634 13.0257 6.66178 12.1819 5.81788C11.338 4.97399 10.1935 4.4999 9.00006 4.4999ZM9.00006 6.29985C9.35461 6.29979 9.7057 6.36957 10.0333 6.5052C10.3609 6.64083 10.6585 6.83966 10.9093 7.09033C11.16 7.341 11.3589 7.6386 11.4947 7.96615C11.6304 8.2937 11.7003 8.64478 11.7004 8.99934C11.7004 9.3539 11.6307 9.705 11.495 10.0326C11.3594 10.3602 11.1606 10.6579 10.9099 10.9086C10.6593 11.1594 10.3617 11.3583 10.0341 11.494C9.70658 11.6298 9.35551 11.6997 9.00096 11.6997C8.28491 11.6997 7.59819 11.4153 7.09187 10.9089C6.58555 10.4026 6.3011 9.71586 6.3011 8.99979C6.3011 8.28372 6.58555 7.59698 7.09187 7.09065C7.59819 6.58431 8.28491 6.29985 9.00096 6.29985M13.7257 3.14993C13.4274 3.14993 13.1412 3.26845 12.9303 3.47942C12.7193 3.6904 12.6008 3.97654 12.6008 4.2749C12.6008 4.57326 12.7193 4.8594 12.9303 5.07038C13.1412 5.28135 13.4274 5.39987 13.7257 5.39987C14.0241 5.39987 14.3102 5.28135 14.5212 5.07038C14.7321 4.8594 14.8507 4.57326 14.8507 4.2749C14.8507 3.97654 14.7321 3.6904 14.5212 3.47942C14.3102 3.26845 14.0241 3.14993 13.7257 3.14993Z" fill="#00C500"/>
</svg>
