<svg width="156" height="26" viewBox="0 0 156 26" fill="none" xmlns="http://www.w3.org/2000/svg">
<path d="M0 3.4215C0 1.62355 1.45588 0.166016 3.25179 0.166016H20.5947V17.3025C20.5947 19.1005 19.1388 20.558 17.3429 20.558H0V3.4215Z" fill="white"/>
<path fill-rule="evenodd" clip-rule="evenodd" d="M20.4637 0.415659C20.2537 0.933416 19.6017 2.18416 19.2431 2.75735C18.0619 4.64539 16.653 6.22932 14.9321 7.60418C12.1989 9.7877 8.88 11.1866 5.12608 11.7374C3.89104 11.9186 3.00388 11.9782 1.4792 11.9825L0.000180728 11.9866L9.02778e-05 16.2707L0 20.5549L8.75047 20.5541C18.2134 20.5532 17.7602 20.5645 18.3801 20.3139C18.834 20.1303 19.1489 19.9189 19.536 19.5375C20.1198 18.9626 20.4464 18.3091 20.5499 17.5093C20.5822 17.2594 20.5934 14.4099 20.5848 8.6448L20.5721 0.148438L20.4637 0.415659Z" fill="#00C500"/>
<path fill-rule="evenodd" clip-rule="evenodd" d="M2.58308 0.205435C1.37287 0.502995 0.380038 1.49732 0.0919838 2.70036C0.00545011 3.06167 0.00129508 3.23118 0.000978934 6.39108C0.000798279 8.21271 0.0109601 9.70308 0.0235608 9.70308C0.0361163 9.70308 0.244457 9.73252 0.486489 9.76847C1.34745 9.89638 2.24991 9.94159 3.42918 9.91596C5.08194 9.88006 6.18331 9.73763 7.70826 9.36252C12.2673 8.24124 16.1217 5.59896 19.1499 1.51916C19.5752 0.946103 20.0985 0.186309 20.0985 0.141817C20.0985 0.128434 16.2319 0.118984 11.5061 0.120838C3.39476 0.123958 2.89521 0.128705 2.58308 0.205435Z" fill="#02B1EB"/>
<path fill-rule="evenodd" clip-rule="evenodd" d="M32.4668 10.2773V20.5458L37.3368 20.4598C42.6607 20.3659 43.2326 20.2818 45.287 19.2916C46.7638 18.5798 48.7097 16.6407 49.4193 15.1737C50.2063 13.5467 50.4995 12.1816 50.4932 10.1743C50.4832 7.06434 49.6434 4.87859 47.7017 2.90899C46.8597 2.05493 46.1888 1.55648 45.287 1.11537C43.3007 0.14365 42.3452 0.0149979 37.0871 0.0116649L32.4668 0.00883221V10.2773ZM53.6118 10.2631V20.5174L55.4849 20.4703L57.358 20.4231L57.4024 16.1319L57.4469 11.8408L57.9852 11.8441C58.4967 11.8473 58.679 12.0626 61.6549 16.1769L64.7862 20.5064H66.8579C67.9973 20.5064 68.9295 20.4656 68.9295 20.4156C68.9295 20.3656 67.5123 18.4218 65.7802 16.0963L62.6309 11.8679L63.853 11.5958C65.2434 11.2862 66.7983 10.3788 67.4871 9.47489C68.3188 8.38352 68.6548 7.3678 68.6619 5.92481C68.6674 4.80477 68.5927 4.42515 68.1937 3.55058C67.6774 2.41838 66.7194 1.41383 65.6212 0.853067C64.1612 0.107654 63.3071 0.00883221 58.322 0.00883221H53.6118V10.2631ZM70.095 1.6753V3.34177H73.1751H76.2553V11.9296V20.5174L78.1284 20.4703L80.0015 20.4231L80.0446 11.8824L80.0877 3.34177H83.1664H86.2451V1.6753V0.00883221H78.17H70.095V1.6753ZM97.4093 8.37852C95.8218 12.9866 94.2388 17.5554 93.8914 18.5315C93.5441 19.5075 93.3049 20.3513 93.36 20.4063C93.4149 20.4614 94.2664 20.5064 95.2519 20.5064H97.0439L97.8422 18.09L98.6404 15.6737H102.645H106.65L107.448 18.09L108.246 20.5064H110.066C111.447 20.5064 111.886 20.4543 111.886 20.29C111.886 20.1708 110.326 15.5777 108.42 10.0828L104.954 0.0921558L102.625 0.046161L100.296 0L97.4093 8.37852ZM42.6319 3.81522C44.3386 4.47831 45.4693 5.60368 46.1481 7.31548C46.4623 8.10788 46.5219 8.57616 46.5219 10.2576C46.5219 12.8218 46.1769 13.8097 44.8008 15.1871C43.3611 16.6281 42.5402 16.8842 39.085 16.9707L36.2962 17.0405V10.1715V3.30261L39.0018 3.37944C41.2526 3.44326 41.8627 3.51642 42.6319 3.81522ZM63.5184 3.76806C65.2681 4.66912 65.4003 7.31331 63.7569 8.54133C63.1992 8.95812 61.722 9.17226 59.3976 9.17343L57.4412 9.17443V6.24693V3.31928L60.1468 3.37227C62.4857 3.41793 62.9426 3.47159 63.5184 3.76806ZM104.123 8.38785L105.535 12.5074H102.637H99.7388L101.15 8.38935C101.927 6.12428 102.562 4.237 102.562 4.19534C102.562 3.90721 102.877 4.75478 104.123 8.38785ZM118.379 4.61713C114.732 5.28388 112.522 8.00023 112.762 11.5188C112.876 13.1798 113.413 14.3853 114.541 15.5148C115.793 16.7677 117.757 17.5068 119.834 17.5068C122.239 17.5068 123.782 18.9404 123.367 20.7899C123.192 21.568 122.318 22.414 121.433 22.6597C120.269 22.9833 118.394 22.8822 117.456 22.445C116.61 22.0507 115.828 21.2908 115.632 20.6739C115.574 20.4901 115.455 20.3398 115.369 20.3398C114.963 20.3398 112.052 21.5735 112.052 21.7456C112.052 22.0739 112.968 23.4098 113.644 24.0663C114.395 24.7963 115.938 25.5625 117.18 25.8216C118.257 26.0463 120.868 26.0619 121.983 25.8503C124.209 25.4279 126.12 24.1497 126.85 22.5962C127.888 20.3841 127.131 17.6324 125.134 16.3651L124.411 15.906L124.903 15.3315C125.843 14.2335 126.265 13.0775 126.341 11.3935C126.391 10.2713 126.338 9.65204 126.14 9.07244C125.992 8.63749 125.871 8.2577 125.871 8.2282C125.871 8.19871 126.396 8.17454 127.037 8.17454H128.202V6.52407V4.87376L124.498 4.77527C122.46 4.72111 120.344 4.64629 119.794 4.60896C119.245 4.57146 118.608 4.57513 118.379 4.61713ZM137.026 4.77577C136.119 5.01891 135.127 5.56751 134.404 6.2251L134.03 6.56623V5.70383V4.8416H132.281H130.533V12.674V20.5064H132.351H134.17L134.225 15.632C134.284 10.3163 134.294 10.2576 135.305 9.31841C136.003 8.67015 136.786 8.32469 137.795 8.22054L138.691 8.12788V6.31809C138.691 4.24267 138.764 4.30999 137.026 4.77577ZM146.071 4.69145C145.596 4.77061 144.775 5.02708 144.246 5.26138C141.218 6.60189 139.524 9.25608 139.524 12.6614C139.524 16.0098 141.051 18.5398 143.901 19.9118C147.14 21.4712 150.941 20.9435 153.491 18.5808C156.102 16.1609 156.744 12.2751 155.091 8.90029C153.542 5.73933 149.918 4.04836 146.071 4.69145ZM121.436 8.2357C123.392 9.3829 123.433 12.5244 121.51 13.7987C120.917 14.1915 120.647 14.2572 119.628 14.2572C118.615 14.2572 118.337 14.1903 117.763 13.8099C116.89 13.2318 116.381 12.1997 116.381 11.0075C116.381 9.43139 117.192 8.30786 118.673 7.83125C119.386 7.60161 120.678 7.79059 121.436 8.2357ZM149.698 8.39752C151.093 9.07644 151.977 10.4489 152.134 12.1771C152.306 14.0802 151.604 15.6847 150.169 16.6645C148.825 17.5826 146.567 17.5659 145.168 16.6279C143.788 15.7022 143.027 13.6172 143.373 11.7085C143.681 10.013 144.623 8.82847 146.116 8.26153C146.972 7.9364 148.901 8.00956 149.698 8.39752Z" fill="white"/>
</svg>
