<svg width="20" height="26" viewBox="0 0 20 26" fill="none" xmlns="http://www.w3.org/2000/svg">
<path d="M10.0004 0.499268C5.0079 0.499268 0.946289 4.56089 0.946289 9.55327C0.946289 15.749 9.04874 24.8446 9.39374 25.2288C9.71774 25.5896 10.2835 25.589 10.607 25.2288C10.9519 24.8446 19.0544 15.749 19.0544 9.55327C19.0542 4.56089 14.9927 0.499268 10.0004 0.499268ZM10.0004 14.1086C7.48851 14.1086 5.44506 12.0651 5.44506 9.55327C5.44506 7.04145 7.48856 4.99799 10.0004 4.99799C12.5121 4.99799 14.5556 7.0415 14.5556 9.55332C14.5556 12.0651 12.5121 14.1086 10.0004 14.1086Z" fill="white"/>
</svg>
