<svg width="30" height="22" viewBox="0 0 30 22" fill="none" xmlns="http://www.w3.org/2000/svg">
<path fill-rule="evenodd" clip-rule="evenodd" d="M4.65174 0.685289C4.51934 0.757755 4.35774 0.879856 4.29274 0.956737C4.15594 1.11832 0.203867 8.4786 0.0732798 8.81488C-0.0633444 9.16674 -0.00344309 9.71027 0.207325 10.0309C0.462404 10.419 2.03795 11.403 2.48334 11.4525C2.95534 11.505 3.3808 11.2786 3.65294 10.8303C3.88018 10.456 7.47091 3.7693 7.66855 3.35235C7.81959 3.03379 7.8363 2.47323 7.7036 2.17245C7.55871 1.8438 7.28734 1.60994 6.44573 1.08824C5.71455 0.635086 5.62552 0.596172 5.27349 0.575737C4.9744 0.558393 4.84076 0.581919 4.65174 0.685289ZM24.3809 0.605695C24.0959 0.720103 22.6784 1.66015 22.5125 1.84487C22.1604 2.23679 22.0982 2.86186 22.358 3.39852C22.565 3.82612 26.1518 10.4981 26.3528 10.8295C26.6747 11.3602 27.2618 11.5934 27.7832 11.3978C28.0138 11.3113 29.3106 10.5186 29.5749 10.3027C29.9689 9.98065 30.1191 9.24564 29.8968 8.72784C29.7409 8.36482 25.9214 1.26117 25.7546 1.02409C25.5545 0.739717 25.1742 0.55934 24.7874 0.565394C24.6122 0.568106 24.4293 0.58627 24.3809 0.605695ZM9.22979 2.63393C9.06298 2.67228 9.05185 2.69473 9.01334 3.07031C8.99095 3.28802 8.90936 3.61415 8.83193 3.79497C8.75457 3.97585 7.94496 5.51448 7.0329 7.21419C6.12085 8.9139 5.30726 10.4323 5.22496 10.5884C5.0816 10.8604 5.09139 10.8538 5.46117 10.4287C5.88728 9.93877 6.24909 9.69583 6.77015 9.54982C7.68267 9.29408 8.5836 9.58817 9.30259 10.3765C9.62993 10.7354 9.69282 10.7776 9.90043 10.7776C10.8588 10.7776 11.8418 11.434 12.2734 12.3624C12.3871 12.607 12.4972 12.9457 12.5181 13.1152C12.5539 13.4058 12.5732 13.4339 12.8565 13.6065C13.2181 13.827 13.7676 14.4333 13.9451 14.8078C14.016 14.9573 14.1106 15.2678 14.1553 15.4979C14.2 15.7279 14.2646 15.9262 14.2987 15.9384C14.3329 15.9506 14.5213 16.0759 14.7174 16.2169C15.8519 17.0321 16.2004 18.5729 15.545 19.8759L15.3941 20.1762L15.5345 20.3371C16.2079 21.1083 17.3672 20.9511 17.8083 20.0285C17.9829 19.6636 18.0008 19.1355 17.8515 18.7571L17.7525 18.506L17.9164 18.671C18.2044 18.9611 18.4598 19.0669 18.8714 19.0667C19.4638 19.0664 19.9161 18.7441 20.1489 18.1567C20.2673 17.8579 20.2626 17.2922 20.1396 17.0372C20.0852 16.9244 20.0542 16.8322 20.0709 16.8322C20.0875 16.8322 20.2453 16.9728 20.4216 17.1446C20.8709 17.5825 21.0582 17.6741 21.509 17.6771C22.4772 17.6834 23.122 16.7285 22.8135 15.7453L22.7017 15.389L22.8658 15.5375C23.1024 15.7518 23.4068 15.8411 23.7965 15.8107C24.7549 15.7361 25.3505 14.6627 24.9525 13.7272C24.816 13.4063 24.5845 13.1776 21.6481 10.4614C19.9114 8.85499 18.4481 7.50197 18.3963 7.45467C18.3147 7.38012 17.955 7.51673 15.7072 8.47595C14.0024 9.20345 12.9942 9.60066 12.7682 9.63389C11.6985 9.79131 10.6671 9.19746 10.1867 8.14767C10.0016 7.7429 9.99174 7.68639 9.99174 7.02631C9.99174 6.37676 10.0039 6.3036 10.1773 5.90992C10.4754 5.23275 10.7254 4.99851 12.2296 3.9872C12.9828 3.48082 13.6132 3.04186 13.6305 3.01178C13.6478 2.98169 13.6274 2.95684 13.5852 2.95665C13.543 2.9564 12.8886 2.87145 12.1311 2.76783C10.8016 2.58594 9.66651 2.53359 9.22979 2.63393ZM16.4128 3.1767C15.5913 3.34201 15.1818 3.55619 13.4301 4.73671C12.5061 5.35939 11.6612 5.95874 11.5526 6.06854C10.936 6.69179 11.0954 7.77607 11.8673 8.20954C12.3525 8.482 12.4158 8.46314 15.6082 7.09593C18.14 6.01165 18.5376 5.85814 18.6239 5.93143C18.6785 5.97785 19.9849 7.17401 21.5268 8.5896C23.0688 10.0051 24.3615 11.1749 24.3996 11.189C24.4377 11.2032 24.5678 11.1235 24.6887 11.012L24.9084 10.8091L23.1444 7.52953C22.1742 5.72576 21.3134 4.09385 21.2317 3.90307C21.1499 3.71228 21.0643 3.51362 21.0414 3.46158C21.0186 3.40955 20.8178 3.31299 20.5951 3.24696C20.25 3.14473 19.9436 3.12417 18.5198 3.10796C17.2761 3.09377 16.7378 3.1113 16.4128 3.1767ZM6.8178 10.9361C6.57614 11.0657 6.36778 11.293 5.67798 12.1797C4.62812 13.5291 4.57742 13.608 4.50035 14.0121C4.38078 14.6391 4.68304 15.255 5.27455 15.5895C5.54323 15.7414 5.64925 15.7672 5.92174 15.7467C6.10098 15.7332 6.35418 15.6624 6.48442 15.5894L6.72115 15.4566L6.64466 15.6871C6.40769 16.4009 6.75848 17.1846 7.47144 17.5344C7.79673 17.6939 8.17226 17.6815 8.536 17.4993L8.83862 17.3477L8.7558 17.5609C8.65059 17.8319 8.64953 18.2896 8.75357 18.5575C8.88046 18.8843 9.20271 19.2357 9.52244 19.3959C9.90752 19.5888 10.2727 19.5879 10.6306 19.3929C10.856 19.2701 10.9004 19.2612 10.8668 19.3456C10.844 19.4028 10.8125 19.6137 10.797 19.8144C10.7582 20.3142 10.8908 20.6649 11.2501 21.0126C11.7837 21.5288 12.4574 21.5753 12.9809 21.1321C13.2281 20.923 14.4298 19.3376 14.5411 19.0739C14.747 18.5863 14.6624 18.0253 14.3179 17.5921C13.9044 17.0724 13.2543 16.8907 12.7277 17.1478L12.4745 17.2715L12.6552 17.026C13.2836 16.1723 12.997 15.0811 12.0302 14.6464C11.7697 14.5293 11.3054 14.5554 11.0312 14.7026C10.8506 14.7995 10.845 14.7988 10.901 14.6863C10.9332 14.6216 10.9861 14.5511 11.0186 14.5294C11.1661 14.4314 11.3222 13.9614 11.3222 13.6157C11.3222 13.1663 11.1727 12.835 10.8182 12.4992C10.231 11.943 9.56177 11.9726 8.97764 12.5805C8.80673 12.7584 8.68488 12.8583 8.70686 12.8025C8.7289 12.7468 8.75996 12.5515 8.77596 12.3684C8.81646 11.9043 8.6762 11.5429 8.32307 11.2012C7.85816 10.7514 7.33429 10.6592 6.8178 10.9361Z" fill="#02B1EB"/>
</svg>
