<svg width="26" height="28" viewBox="0 0 26 28" fill="none" xmlns="http://www.w3.org/2000/svg">
<path fill-rule="evenodd" clip-rule="evenodd" d="M4.60328 0.368963C2.72483 0.671821 1.10262 1.47721 0.659868 2.32667C0.551555 2.53449 0.575679 2.56351 1.11563 2.87477C2.23864 3.52215 2.87416 4.35946 3.41934 5.90973C4.74069 9.66698 7.39228 11.4311 10.2955 10.4844C10.9173 10.2816 10.8995 10.3201 10.6193 9.78264C9.85585 8.31873 8.61966 6.82484 6.98995 5.39686C6.70387 5.14621 6.67964 5.10723 6.67964 4.89744C6.67964 4.71736 6.71256 4.63731 6.83738 4.5134C7.19395 4.15962 7.54069 4.35533 8.83786 5.64259C10.9986 7.78675 12.2046 9.98167 12.7787 12.8148C13.1204 14.5013 13.2078 15.8191 13.2089 19.2981L13.2097 21.7898L12.5991 21.8541C10.3162 22.0946 8.40968 22.9261 7.05422 24.2724C6.27547 25.0459 5.80822 25.8189 5.60277 26.6738C5.51151 27.0535 5.5618 27.2702 5.79273 27.4924L5.98405 27.6763L13.7119 27.6898C21.2972 27.7031 21.443 27.7014 21.6123 27.5987C21.9938 27.3672 22.0587 27.032 21.8459 26.3912C21.3435 24.8783 20.1211 23.6258 18.3196 22.7779C17.2447 22.2721 16.1958 21.9832 14.9839 21.8593L14.3452 21.794L14.3306 19.4073L14.3161 17.0206L14.4723 16.5957C14.6936 15.9936 15.2812 14.865 15.7007 14.2362C16.6194 12.8593 18.1754 11.3834 19.7067 10.4364C20.0665 10.214 20.1479 10.1842 20.3218 10.2117C20.6813 10.2685 20.8832 10.6778 20.71 10.9988C20.6797 11.0551 20.3944 11.2742 20.0759 11.4857C19.0421 12.1726 18.0927 13.0019 17.3256 13.8881L16.978 14.2897L17.2931 14.4351C17.8333 14.6843 18.232 14.7584 18.8992 14.7337C19.3673 14.7165 19.5828 14.6813 19.8928 14.5715C20.952 14.1961 21.8979 13.3292 22.644 12.05C23.5647 10.4711 23.9875 10.0493 25.0411 9.65862C25.2112 9.59554 25.3649 9.52074 25.3825 9.49241C25.4408 9.39871 25.19 8.97591 24.9066 8.69013C23.9054 7.68105 21.9764 7.01268 20.3335 7.10558C18.1342 7.22992 16.1248 8.63053 15.4575 10.5043C15.3084 10.9232 15.292 11.0317 15.2941 11.5857C15.2957 12.0228 15.3221 12.2683 15.385 12.4319L15.4736 12.6624L15.2141 12.9941C14.8524 13.4565 14.6491 13.7616 14.4026 14.2124L14.1903 14.6007L14.1563 14.3381C13.8927 12.3031 13.3698 10.3492 12.7723 9.16691L12.6188 8.86324L12.8083 8.55112C12.9124 8.37945 13.0616 8.04623 13.1398 7.81063C13.264 7.43612 13.2822 7.29134 13.2847 6.65938C13.2872 6.03144 13.2682 5.86705 13.1403 5.408C12.6325 3.58625 11.2022 1.94655 9.35103 1.06426C8.6698 0.739558 8.23865 0.591662 7.53108 0.440019C6.85746 0.295658 5.29348 0.257694 4.60328 0.368963Z" fill="#02B1EB"/>
</svg>
