<svg width="30" height="28" viewBox="0 0 30 28" fill="none" xmlns="http://www.w3.org/2000/svg">
<path fill-rule="evenodd" clip-rule="evenodd" d="M15.6921 1.14815C13.5645 1.54934 12.1567 2.10025 10.8667 3.03648C9.29847 4.17458 8.43729 5.84861 8.43729 7.75887V8.28232L8.27749 8.12025C8.12799 7.96868 8.11769 7.91438 8.11769 7.27792C8.11769 6.42235 7.92587 5.74429 7.48701 5.04885C6.6877 3.78235 5.46941 3.22358 3.70729 3.31527C2.81064 3.36191 2.08708 3.51832 1.05837 3.88777C0.287635 4.16457 0.0639189 4.33988 0.0639189 4.66711C0.0639189 4.83518 0.173412 5.00352 0.615603 5.51537C1.23178 6.22855 1.58033 6.77048 1.98033 7.63731C2.45653 8.66923 2.92026 9.19226 3.74162 9.62387C4.32309 9.92937 4.69797 10.0175 5.41553 10.0175C6.04167 10.0175 6.07638 10.0097 6.24327 9.82968C6.44072 9.61677 6.47907 9.24821 6.32477 9.04751C6.27383 8.98121 5.88693 8.6477 5.46506 8.30639C4.53856 7.55686 4.21449 7.25364 4.10046 7.0299C4.02465 6.88115 4.02932 6.83872 4.13919 6.67976C4.20791 6.58034 4.31254 6.48865 4.37167 6.47609C4.43079 6.46354 4.74419 6.59262 5.068 6.7629C6.69422 7.61785 8.12754 9.14238 9.21972 11.1788L9.54098 11.7778L9.43014 12.45C9.36923 12.8197 9.30428 13.6563 9.28581 14.309L9.25225 15.4958L9.44708 15.7061C9.55427 15.8217 9.70308 15.9164 9.77786 15.9164C9.97211 15.9164 10.2758 15.7321 10.3168 15.5894C10.3359 15.5226 10.3674 15.0488 10.3868 14.5366C10.4488 12.898 10.724 11.3854 11.2205 9.95469L11.4566 9.27443L11.433 7.11634L11.4095 4.95826L11.5645 4.77992C11.7694 4.5441 12.1277 4.53444 12.3236 4.75949C12.4513 4.90617 12.4622 4.99938 12.4786 6.08097L12.4961 7.2446L12.8442 6.73378C13.0356 6.45284 13.5001 5.8909 13.8764 5.48509C14.5713 4.73569 14.856 4.549 15.1002 4.68277C15.2301 4.75397 15.4044 5.09162 15.4044 5.27204C15.4044 5.34089 15.1285 5.69172 14.7913 6.05158C14.4541 6.41145 14.1213 6.79132 14.0519 6.89564L13.9256 7.08537H14.4762C14.9755 7.08537 15.0413 7.1011 15.1836 7.25474C15.398 7.48607 15.3954 7.83352 15.1777 8.0543C15.0342 8.1998 14.9422 8.2225 14.4029 8.24527C14.0663 8.25955 13.6003 8.32261 13.3672 8.38546L12.9436 8.49971L12.5449 9.35156C12.097 10.3087 11.825 11.1565 11.825 11.5959C11.825 11.8236 11.8625 11.9288 11.9898 12.0579C12.1942 12.2653 12.4899 12.2644 13.241 12.0542C14.9086 11.5877 16.088 10.3715 16.6211 8.5687C16.7471 8.14261 16.7696 7.87057 16.8121 6.25746C16.8652 4.24391 16.9046 3.95966 17.3211 2.57754C17.6275 1.56093 17.6404 1.34616 17.4086 1.11421C17.1912 0.896882 17.0052 0.900539 15.6921 1.14815ZM13.4869 14.0208C13.0529 14.1503 12.8487 14.304 12.704 14.6104C12.438 15.1735 12.6978 16.0024 13.2312 16.2923C13.3191 16.3402 13.6786 16.4497 14.0302 16.5359C15.3642 16.8629 16.7119 17.4704 17.7556 18.215C18.6545 18.8563 18.7925 19.0273 18.5713 19.2254C18.4984 19.2908 17.9097 19.2707 15.8388 19.1321C14.387 19.0349 12.1638 18.8887 10.8982 18.807L8.59709 18.6587L6.99911 18.0187C5.1385 17.2736 3.13918 16.5395 2.365 16.3174C1.63754 16.1087 0.827877 16.1 0.511351 16.2974C0.240527 16.4664 0 16.9447 0 17.3143C0 18.0987 0.616242 18.5251 3.64337 19.8351C5.97987 20.8463 8.26701 21.7823 12.9755 23.6544L15.0529 24.4804L19.9107 25.5742L24.7686 26.6682L26.8011 26.8558L28.8337 27.0435L29.0205 26.8503C29.2814 26.5805 29.7003 25.6821 29.8633 25.0432C29.9784 24.5914 30.0002 24.3193 30 23.3331C29.9997 22.1219 29.9375 21.5989 29.6631 20.5033C29.5869 20.1991 29.5017 19.9103 29.4738 19.8615C29.4355 19.7947 29.112 19.7703 28.16 19.7627C26.7173 19.7513 26.7191 19.7505 26.8928 20.2718C27.0152 20.6393 26.9722 20.8149 26.76 20.8149C26.6359 20.8149 26.5789 20.747 26.4668 20.4658C26.0768 19.4873 25.2111 18.2029 24.3997 17.3989C23.874 16.8782 22.9953 16.2209 22.3706 15.8814C20.45 14.8374 14.7502 13.6437 13.4869 14.0208ZM3.19166 14.7485C2.99121 14.9801 2.91975 15.2567 2.95158 15.678L2.97223 15.9509L4.44236 16.477C5.25093 16.7663 6.62922 17.2748 7.50529 17.607C9.01096 18.178 9.10275 18.2041 9.18316 18.0854C9.28057 17.9416 9.28415 17.913 9.21889 17.8023C9.19287 17.7582 8.56736 17.4147 7.82897 17.0392C6.6691 16.4494 6.3598 16.2565 5.55679 15.6221C4.50743 14.7931 4.06019 14.5382 3.65303 14.5372C3.42471 14.5367 3.34232 14.5744 3.19166 14.7485Z" fill="#02B1EB"/>
</svg>
