<svg width="30" height="31" viewBox="0 0 30 31" fill="none" xmlns="http://www.w3.org/2000/svg">
<path d="M21.25 26.7504C19.1829 26.7485 17.1479 26.2376 15.325 25.2629L14.7625 24.9504C10.8759 22.8607 7.68961 19.6744 5.6 15.7879L5.2875 15.2254C4.28728 13.3921 3.75891 11.3387 3.75 9.25033V8.41283C3.74948 7.74653 4.01495 7.10758 4.4875 6.63783L6.6 4.52533C6.80516 4.31858 7.09476 4.21893 7.3837 4.25566C7.67264 4.29238 7.9281 4.46133 8.075 4.71283L10.8875 9.53783C11.1719 10.0289 11.0898 10.65 10.6875 11.0503L8.325 13.4129C8.1288 13.6069 8.08309 13.9066 8.2125 14.1504L8.65 14.9754C10.2213 17.8859 12.6116 20.2719 15.525 21.8379L16.35 22.2879C16.5938 22.4172 16.8935 22.3715 17.0875 22.1754L19.45 19.8129C19.8503 19.4106 20.4714 19.3285 20.9625 19.6129L25.7875 22.4254C26.039 22.5722 26.208 22.8277 26.2446 23.1166C26.2814 23.4056 26.1818 23.6952 25.975 23.9004L23.8625 26.0129C23.3928 26.4854 22.7538 26.7509 22.0875 26.7504H21.25Z" fill="#00C500"/>
</svg>
