<svg width="40" height="40" viewBox="0 0 40 40" fill="none" xmlns="http://www.w3.org/2000/svg">
<path fill-rule="evenodd" clip-rule="evenodd" d="M7.83562 0.0588911C5.80342 0.235655 3.25983 0.885506 1.22816 1.74714C0.486098 2.06181 0.174263 2.35446 0.0388762 2.86327C-0.0578912 3.22702 0.0334711 3.77102 0.230057 4.00106C1.35936 5.32294 1.71653 5.76048 2.37071 6.62343C3.56217 8.19518 4.01026 8.90485 4.93478 10.6842C5.92085 12.5821 6.65018 13.7269 7.50217 14.7138C9.29925 16.7954 11.3625 17.7644 13.3537 17.462C14.0502 17.3562 14.9406 17.0677 14.9406 16.9478C14.9406 16.9098 14.6675 16.333 14.3336 15.6658C13.256 13.5127 11.7209 11.7452 9.7531 10.3919C8.59852 9.59785 8.3722 9.30694 8.42233 8.68084C8.48475 7.90156 9.01453 7.42254 9.81412 7.42254C10.3286 7.42254 11.1015 7.87903 11.2189 8.25221C11.341 8.64006 11.5783 8.86381 12.5432 9.50021C13.6087 10.2029 15.2459 11.8072 15.8596 12.7499C16.0942 13.1102 16.5077 13.8458 16.7785 14.3846C17.0494 14.9235 17.2913 15.3439 17.3162 15.3189C17.3775 15.2576 17.8337 16.3777 18.1196 17.2913C18.9407 19.9153 19.3005 23.2055 19.1219 26.4597C19.042 27.9175 18.845 29.7405 18.758 29.8275C18.7395 29.8461 18.2745 29.9776 17.7247 30.1196C16.5015 30.4355 16.0317 30.6173 14.8449 31.234C13.188 32.0951 11.6272 33.4363 10.4444 35.0155C9.69574 36.015 8.74035 37.9024 8.69241 38.4765C8.64376 39.0591 8.9134 39.5325 9.44745 39.8025L9.83801 40L21.0571 39.9772L32.2763 39.9544L32.5224 39.7717C33.3352 39.1683 33.358 38.5269 32.6199 37.0206C31.1077 33.9341 28.3282 31.4856 25.0937 30.3903C24.2573 30.1071 22.7104 29.7808 22.1937 29.7787C21.6732 29.7765 21.6686 29.7627 21.7984 28.601C21.8627 28.0246 21.9448 26.6619 21.9808 25.5728L22.0462 23.5925L22.5454 22.6034C22.8199 22.0594 23.3541 21.2016 23.7324 20.6973C24.4254 19.7735 26.1988 17.8224 26.4458 17.7122C26.9174 17.5017 27.6607 17.7606 27.9955 18.2519C28.2149 18.574 28.2641 19.2615 28.091 19.5895C28.0356 19.6944 27.6054 20.1852 27.1348 20.68C26.6642 21.1747 26.1985 21.6932 26.0998 21.8321L25.9203 22.0845L26.3154 22.3165C27.0735 22.7615 27.5736 22.903 28.5451 22.9472C29.6275 22.9964 30.5367 22.8072 31.5646 22.3187C33.032 21.6214 34.4732 20.3234 35.1592 19.0813C36.2938 17.0269 37.3084 15.9503 38.8842 15.1291C39.6217 14.7447 39.8507 14.5018 39.9702 13.9777C40.1286 13.2827 39.6616 12.5836 38.4064 11.6367C34.9943 9.06275 29.7468 8.73351 26.3056 10.8776C25.6069 11.3128 24.7621 12.1679 24.4138 12.7922C23.9081 13.6985 23.5712 15.0327 23.5712 16.1289C23.5712 16.5018 23.5297 16.572 22.8911 17.2798C22.5172 17.6944 22.0599 18.222 21.875 18.4523C21.6902 18.6825 21.5121 18.8397 21.4793 18.8016C21.4465 18.7635 21.3313 18.3589 21.2232 17.9026C20.907 16.5682 20.3736 15.0629 19.7717 13.8061L19.2109 12.6353L19.6423 11.6228C20.302 10.0743 20.4634 9.35288 20.4653 7.94654C20.4667 6.9008 20.4407 6.68858 20.235 6.06886C19.8399 4.87841 19.1977 3.95966 18.1754 3.12221C15.3638 0.818783 11.6722 -0.274899 7.83562 0.0588911Z" fill="#02B1EB"/>
</svg>
