<svg width="40" height="40" viewBox="0 0 40 40" fill="none" xmlns="http://www.w3.org/2000/svg">
<path fill-rule="evenodd" clip-rule="evenodd" d="M5.58594 2.93056C4.55469 4.54234 3.63359 6.02661 3.53906 6.22905C2.42922 8.60516 3.60219 11.336 6.13812 12.2799C6.74375 12.5053 8.09531 12.5275 8.75 12.3229C10.1573 11.8829 11.3846 10.596 11.7556 9.17141C11.9897 8.27238 11.8736 7.11246 11.4609 6.22905C11.278 5.83744 7.56609 0 7.5 0C7.47852 0 6.61719 1.31877 5.58594 2.93056ZM30.5859 2.93056C29.5547 4.54234 28.6336 6.02661 28.5391 6.22905C27.428 8.60766 28.5977 11.3311 31.1381 12.2806C31.7421 12.5064 33.0926 12.5282 33.75 12.3228C35.1506 11.8851 36.3862 10.5897 36.7556 9.17141C36.9897 8.27238 36.8736 7.11246 36.4609 6.22905C36.278 5.83744 32.5661 0 32.5 0C32.4785 0 31.6172 1.31877 30.5859 2.93056ZM17.6172 6.68232C16.3281 8.63868 15.1409 10.4922 14.9791 10.8013C13.5595 13.5108 14.6984 16.784 17.5391 18.1591C19.1742 18.9506 20.8258 18.9506 22.4609 18.1591C25.3016 16.784 26.4405 13.5108 25.0209 10.8013C24.7258 10.2378 20.0734 3.12527 20 3.12527C19.9785 3.12527 18.9062 4.72596 17.6172 6.68232ZM6.07422 7.77974C6.17086 7.88608 6.25 8.06251 6.25 8.17182C6.25 8.71924 6.75234 9.24525 7.38852 9.36417C7.80102 9.44121 8.125 9.72375 8.125 10.0063C8.125 10.2238 7.70898 10.621 7.48109 10.621C7.15047 10.621 6.45961 10.377 6.11102 10.1372C5.32203 9.59428 4.78062 8.34989 5.11281 7.84279C5.36453 7.45868 5.75883 7.43273 6.07422 7.77974ZM34.8242 7.77974C35.0329 8.00922 35.0409 8.16002 34.8758 8.74862C34.6302 9.62397 33.8452 10.3448 32.9095 10.5542C32.4124 10.6654 32.1591 10.5738 31.9551 10.2088C31.8483 10.018 31.8483 9.97379 31.9551 9.78298C32.0937 9.53505 32.3416 9.39535 32.7583 9.33034C33.1635 9.26713 33.6463 8.78425 33.7095 8.37896C33.7738 7.96695 33.9159 7.71035 34.143 7.59604C34.3852 7.47415 34.5988 7.53173 34.8242 7.77974ZM22.9067 13.1254C23.1235 13.3422 23.1407 13.3961 23.0966 13.7185C22.9185 15.0173 21.788 16.0218 20.2942 16.2085C19.8694 16.2615 19.8383 16.2533 19.612 16.027C19.3147 15.7297 19.3123 15.516 19.6034 15.225C19.778 15.0503 19.9037 14.9966 20.1377 14.9966C20.6314 14.9966 21.3772 14.5791 21.6488 14.1507C21.7732 13.9545 21.875 13.6927 21.875 13.5688C21.875 13.2981 22.2519 12.8869 22.5 12.8869C22.5926 12.8869 22.7755 12.9942 22.9067 13.1254ZM0 21.39C0 23.5766 0.0834375 24.347 0.444687 25.4965C1.42125 28.6038 3.96508 31.1293 7.06359 32.0681C8.42617 32.4808 8.71086 32.499 13.8384 32.499C16.4538 32.499 18.5937 32.4726 18.5935 32.4404C18.593 32.3334 17.3311 30.6745 16.6729 29.9157C14.7555 27.705 11.9591 25.4539 9.12063 23.8358C8.87328 23.6949 8.63602 23.5142 8.59328 23.4344C8.40109 23.0752 8.59633 22.6278 8.98516 22.5362C9.21719 22.4816 9.52906 22.6375 10.8824 23.4842C14.0924 25.4927 16.8731 28.0033 18.8244 30.6547L19.3359 31.3498L19.3591 29.9514C19.3847 28.4026 19.271 27.4534 18.9309 26.3746C17.957 23.2862 15.4575 20.7865 12.3735 19.8169C11.0177 19.3908 10.7159 19.3722 5.1425 19.3722H0V21.39ZM28.9453 19.4984C25.2097 20.1685 22.195 22.8089 21.0591 26.4054C20.7253 27.462 20.6165 28.3845 20.6416 29.9428L20.6641 31.3324L21.1705 30.646C23.6855 27.2378 27.749 23.9611 32.2089 21.7448C33.0927 21.3057 33.137 21.2924 33.3398 21.4063C33.4559 21.4715 33.6045 21.6206 33.6699 21.7377C33.8602 22.0779 33.6717 22.3123 32.8492 22.7576C30.8553 23.8373 30.3223 24.1508 29.1016 24.9617C26.7948 26.4939 24.7605 28.2494 23.2262 30.0318C22.5379 30.8316 21.4062 32.3349 21.4062 32.4496C21.4062 32.4768 23.5446 32.499 26.1581 32.499C31.3054 32.499 31.6562 32.4762 32.9985 32.0542C36.0826 31.0846 38.5859 28.581 39.5553 25.4965C39.9166 24.347 40 23.5766 40 21.39V19.3722L34.7852 19.3792C30.6213 19.3848 29.4444 19.4088 28.9453 19.4984ZM7.27164 21.554C7.52078 21.8031 7.54578 21.921 7.41172 22.2151C7.28648 22.4902 6.93875 22.6211 6.65078 22.5018C6.43117 22.4108 6.25 22.1397 6.25 21.9019C6.25 21.7238 6.68188 21.3256 6.875 21.3256C6.96758 21.3256 7.14602 21.4283 7.27164 21.554ZM18.4375 36.8746V40H20H21.5625V36.8746V33.7491H20H18.4375V36.8746Z" fill="white"/>
</svg>
