<svg width="34" height="40" viewBox="0 0 34 40" fill="none" xmlns="http://www.w3.org/2000/svg">
<path fill-rule="evenodd" clip-rule="evenodd" d="M3.2139 0.0670803C1.80996 0.39177 0.697248 1.71089 0.621061 3.141C0.59147 3.69533 0.680923 4.20002 1.34688 7.2363L2.10638 10.6993L1.99252 12.4934C1.72876 16.65 1.75384 24.2073 2.04473 28.2231L2.11726 29.2244L1.05684 33.063C-0.0755958 37.1626 -0.134182 37.4923 0.131029 38.2758C0.311039 38.8077 0.92156 39.4758 1.48319 39.7556C2.23358 40.1294 2.62294 40.1061 6.36217 39.4638L9.70149 38.8902L10.6562 38.9996C11.1814 39.0597 12.2806 39.1886 13.0991 39.2859C13.9928 39.3923 15.3512 39.48 16.5003 39.5056C18.5036 39.5503 19.3172 39.496 22.8693 39.081L24.519 38.8883L27.4184 39.4202C29.0321 39.7162 30.5651 39.9536 30.8753 39.9554C32.5088 39.9654 33.8682 38.6747 33.9889 36.9989C34.0307 36.4184 34.0023 36.3066 33.0187 33.1881L32.0054 29.9755L32.1104 28.39C32.3562 24.6782 32.4354 20.4636 32.3232 17.0534C32.2641 15.2568 32.169 13.0734 32.1118 12.2014L32.0077 10.6159L32.5057 6.81907C32.8187 4.43291 32.9897 2.84576 32.966 2.54736C32.8901 1.59281 32.2215 0.64261 31.3393 0.235976C30.5559 -0.12518 30.2347 -0.1029 27.2222 0.521029L24.4897 1.08713L22.1644 0.819517C17.6044 0.294889 16.6431 0.294555 12.0148 0.81668L9.65532 1.08287L6.90772 0.529624C4.14839 -0.0258791 3.80291 -0.0691877 3.2139 0.0670803ZM19.4339 7.40386C22.4083 7.53403 25.2123 7.85121 27.8519 8.35606C28.7866 8.53481 28.9868 8.60073 29.1486 8.78273C29.3975 9.06277 29.3913 9.3631 29.1312 9.61828C28.8748 9.86987 28.8638 9.86987 27.554 9.61811C26.1441 9.34716 23.8609 9.02889 22.0273 8.84773C20.8743 8.73383 19.7639 8.70078 17.0955 8.70078C14.4272 8.70078 13.3167 8.73383 12.1637 8.84773C10.3301 9.02889 8.04688 9.34716 6.63699 9.61811C5.32717 9.86987 5.3162 9.86987 5.05984 9.61828C4.79973 9.3631 4.79352 9.06277 5.0424 8.78273C5.20354 8.6014 5.4014 8.53564 6.29661 8.36583C8.82755 7.88559 11.9203 7.52385 14.4596 7.41112C16.6439 7.31415 17.3618 7.31315 19.4339 7.40386ZM19.0545 10.2042C22.8591 10.9124 25.9894 13.8212 26.9615 17.5514C27.609 20.036 27.2133 22.8027 25.8946 25.0104C24.6678 27.0639 22.7132 28.6567 20.4809 29.4218C18.583 30.0722 16.4727 30.1619 14.5653 29.673C10.6827 28.6779 7.74128 25.5449 7.05449 21.6725C6.91189 20.8686 6.91189 19.1386 7.05449 18.3347C7.74332 14.4511 10.6899 11.3197 14.5873 10.3294C15.978 9.97601 17.5866 9.93095 19.0545 10.2042ZM20.4582 15.1275C19.522 15.5113 18.7568 15.883 18.4793 16.0885C17.9022 16.5161 17.4812 17.1411 17.2921 17.8509C17.1645 18.3301 17.1584 18.4664 17.2498 18.8017C17.3085 19.0171 17.4318 19.297 17.5238 19.4238L17.6911 19.6543L17.4065 20.3088C17.2499 20.6688 17.0384 21.2107 16.9362 21.5132L16.7505 22.0632L16.4614 21.7956L16.1722 21.528L16.3015 21.1622C16.5023 20.5941 16.4223 19.8908 16.0787 19.2027C15.7185 18.4816 14.866 17.6222 14.1919 17.3008C13.6097 17.0231 10.7986 16.2511 10.3644 16.2496C9.98337 16.2483 9.61281 16.6223 9.61281 17.0081C9.61281 17.2461 10.4611 19.1069 11.3292 20.7731C11.8148 21.7052 12.3681 22.2686 13.163 22.64C13.7584 22.9182 14.5949 22.9644 15.0324 22.7434L15.3077 22.6043L15.8286 23.1606L16.3494 23.717L16.2956 24.76C16.2661 25.3337 16.2199 26.0307 16.1929 26.3087C16.148 26.7714 16.1632 26.8369 16.3722 27.0806C16.6812 27.441 17.0777 27.4493 17.3758 27.1016C17.5707 26.8742 17.5901 26.7691 17.6425 25.6622C17.7351 23.7029 17.9394 22.6917 18.5479 21.1804L18.8034 20.546L19.4588 20.5439C20.2342 20.5414 20.7462 20.3233 21.3366 19.7439C21.8581 19.2321 22.0041 18.8989 22.4655 17.1664C22.8864 15.5859 22.9433 15.1899 22.79 14.9088C22.6977 14.7394 22.2821 14.4942 22.0953 14.4989C22.0345 14.5005 21.2978 14.7833 20.4582 15.1275ZM6.70484 30.3896C10.5504 31.1006 12.9276 31.3103 17.138 31.3096C21.2248 31.3089 23.5716 31.1051 27.2471 30.4316C27.9901 30.2955 28.671 30.1841 28.7602 30.1841C28.991 30.1841 29.3399 30.5557 29.3399 30.8015C29.3399 30.9157 29.2538 31.1061 29.1486 31.2245C28.9877 31.4056 28.7889 31.4719 27.8942 31.6425C25.165 32.1627 22.0959 32.4969 19.1197 32.5978C14.9186 32.7402 10.8213 32.449 6.80679 31.7225C5.41314 31.4702 5.21187 31.4133 5.0424 31.2235C4.79343 30.9447 4.79973 30.6441 5.05984 30.3889C5.3168 30.1367 5.33721 30.1367 6.70484 30.3896Z" fill="white"/>
</svg>
