<svg width="31" height="30" viewBox="0 0 31 30" fill="none" xmlns="http://www.w3.org/2000/svg">
<path fill-rule="evenodd" clip-rule="evenodd" d="M14.9751 0.130848C14.7436 0.253493 14.6706 0.37057 13.8157 1.98933L12.9035 3.71695L10.9751 3.98668C9.81958 4.14829 8.96832 4.29514 8.85099 4.35303C8.45855 4.54675 8.2681 4.99151 8.36506 5.48789C8.40304 5.68214 8.59805 5.88723 9.85917 7.05906L11.3096 8.4068L10.9917 10.1354C10.6475 12.0069 10.6298 12.3371 10.8578 12.6408C11.048 12.8943 11.4923 13.0878 11.7957 13.0492C11.9371 13.0312 12.7458 12.6659 13.7724 12.1563L15.5098 11.2938L15.7982 11.4399C17.7225 12.4146 18.9918 13.0192 19.1715 13.047C19.484 13.0951 19.9107 12.9259 20.1135 12.6735C20.3776 12.3449 20.365 12.034 20.0092 10.1061L19.6956 8.4068L21.0587 7.14696C21.8083 6.45404 22.4759 5.808 22.5421 5.71132C22.7166 5.45654 22.7077 4.94252 22.5243 4.67989C22.2727 4.31963 22.0053 4.24562 19.9708 3.97303L18.112 3.72399L17.1919 1.99284C16.3314 0.373617 16.256 0.253317 16.0249 0.130848C15.8714 0.0495735 15.6726 0 15.5 0C15.3273 0 15.1286 0.0495735 14.9751 0.130848ZM10.866 15.0754C10.6823 15.1676 10.5522 15.2911 10.455 15.4655L10.3127 15.7206V22.8603V30H15.5007H20.6886L20.6725 22.8029L20.6563 15.6057L20.502 15.3894C20.417 15.2704 20.2346 15.1207 20.0965 15.0567C19.8533 14.9441 19.7091 14.9404 15.4902 14.9404H11.135L10.866 15.0754ZM0.586798 18.9587C0.484967 19.0091 0.350161 19.0946 0.287173 19.1487C-0.00819035 19.4023 2.27963e-05 19.2481 2.27963e-05 24.5396C2.27963e-05 29.4968 0.000516807 29.516 0.128963 29.6709C0.410247 30.0102 0.275625 30 4.44314 30H8.2749V24.4332V18.8665L4.52342 18.8668C1.24212 18.8672 0.748714 18.8786 0.586798 18.9587ZM22.7251 26.3949V30H26.5568C30.7243 30 30.5897 30.0102 30.871 29.6709C30.9979 29.5178 30.9999 29.4691 30.9999 26.5026C30.9999 23.1617 31.0156 23.2955 30.588 22.986L30.3612 22.8218L26.5431 22.8058L22.7251 22.7899V26.3949Z" fill="#00C500"/>
</svg>
