<svg width="30" height="30" viewBox="0 0 30 30" fill="none" xmlns="http://www.w3.org/2000/svg">
<path fill-rule="evenodd" clip-rule="evenodd" d="M22.8424 2.29533L20.5455 4.59072L20.8788 6.13123L21.2122 7.6718L18.1707 10.7193L15.1292 13.7668L14.7615 13.642C13.6431 13.2624 12.3163 13.8637 11.7924 14.9875C11.6341 15.3272 11.6113 15.4531 11.6113 15.991C11.6113 16.5203 11.6352 16.6568 11.7818 16.9699C12.3413 18.1635 13.7171 18.7392 14.8995 18.2746C16.1406 17.7868 16.786 16.408 16.3519 15.1718L16.2574 14.9028L19.3052 11.8617L22.353 8.82057L23.8867 9.15599L25.4204 9.49148L27.7295 7.18055C29.8516 5.05672 30.035 4.85583 29.9956 4.69851C29.972 4.60431 29.8879 4.50332 29.8088 4.47392C29.7298 4.4446 28.9371 4.2661 28.0473 4.07732C27.1576 3.88847 26.4049 3.71257 26.3747 3.68635C26.3446 3.66013 26.1508 2.85812 25.9442 1.90397C25.5637 0.147092 25.5092 0 25.2382 0C25.1837 0 24.1056 1.03288 22.8424 2.29533ZM12.582 2.01293C9.94742 2.2849 7.41227 3.32924 5.25592 5.03083C4.54969 5.58805 3.34261 6.8393 2.80178 7.57469C1.22709 9.71587 0.316449 12.0731 0.0649266 14.6589C-0.601313 21.5086 3.92609 27.9245 10.5996 29.5877C11.8445 29.898 12.7068 30.0013 14.0379 30C16.2654 29.9977 18.1635 29.5673 20.1529 28.6132C23.0253 27.2356 25.5568 24.6278 26.8351 21.7297C28.3652 18.2607 28.4676 14.5362 27.1315 10.9483C27.0041 10.6061 26.8879 10.3132 26.8732 10.2974C26.8586 10.2815 26.6446 10.469 26.3978 10.714L25.9492 11.1595L24.3801 10.8227L22.811 10.4858L22.313 10.9812L21.815 11.4766L22.0294 11.8725C22.3416 12.449 22.6801 13.4062 22.8456 14.1811C22.9612 14.7218 22.9908 15.0731 22.9929 15.9263C22.997 17.5398 22.7495 18.62 22.0601 19.9978C20.7993 22.5179 18.5887 24.2052 15.7594 24.8067C14.8849 24.9927 13.3185 25.0046 12.4202 24.8321C9.56182 24.2833 7.15524 22.4387 5.92022 19.8501C5.60508 19.1896 5.37343 18.492 5.19781 17.6743C5.03021 16.8943 5.03118 15.0879 5.19956 14.2754C5.95147 10.6473 8.65571 7.92882 12.2908 7.14695C13.0497 6.98367 14.9363 6.97869 15.7203 7.13782C16.4739 7.29074 17.1873 7.53028 17.9406 7.88318L18.5755 8.18067L19.0643 7.69168L19.5531 7.20263L19.2193 5.66121L18.8854 4.11979L19.3492 3.65262L19.813 3.18545L19.4976 3.04509C18.4706 2.58802 16.7741 2.15458 15.4478 2.01053C14.7322 1.93271 13.3471 1.93388 12.582 2.01293ZM13.1967 8.5506C10.6492 8.86194 8.48261 10.385 7.35539 12.6569C6.88541 13.6041 6.69025 14.3015 6.59778 15.3641C6.34652 18.2527 7.82511 21.0376 10.3847 22.497C12.5661 23.7408 15.4946 23.747 17.6473 22.5123C19.5518 21.42 20.8121 19.7381 21.3329 17.5941C21.4218 17.2278 21.4463 16.8596 21.4434 15.9263C21.4401 14.8311 21.4248 14.6743 21.2651 14.0951C21.169 13.7467 21.0023 13.2672 20.8946 13.0295L20.6988 12.5974L19.3419 13.9537L17.9851 15.3101V15.9487C17.9851 17.1198 17.6426 17.9552 16.8232 18.7819C16.0462 19.5659 15.1462 19.9402 14.0379 19.9402C13.3627 19.9402 12.9498 19.8478 12.3207 19.5556C11.3722 19.1152 10.6251 18.2689 10.2622 17.2239C10.0955 16.744 10.0704 16.5809 10.0724 15.991C10.0742 15.4345 10.1061 15.2139 10.2481 14.7744C10.5846 13.733 11.3429 12.866 12.3231 12.4015C12.9548 12.1023 13.3211 12.022 14.0859 12.0153L14.7485 12.0094L16.0765 10.6823C17.5855 9.17412 17.5322 9.32794 16.6622 8.99109C15.6635 8.60446 14.2382 8.42325 13.1967 8.5506Z" fill="#00C500"/>
</svg>
