<svg width="30" height="30" viewBox="0 0 30 30" fill="none" xmlns="http://www.w3.org/2000/svg">
<path fill-rule="evenodd" clip-rule="evenodd" d="M0.495125 0.142125C0.379125 0.22025 0.22025 0.379125 0.142125 0.495125C0.00068751 0.704938 0 0.717375 0 3C0 5.28263 0.00068751 5.29506 0.142125 5.50488C0.59025 6.16988 1.40975 6.16988 1.85788 5.50488C1.99675 5.29881 2 5.25662 2 3.647V2H3.647C5.25662 2 5.29881 1.99675 5.50488 1.85788C6.16988 1.40975 6.16988 0.59025 5.50488 0.142125C5.29506 0.00068751 5.28263 0 3 0C0.717375 0 0.704938 0.00068751 0.495125 0.142125ZM24.4951 0.142125C24.1712 0.360375 24 0.657 24 1C24 1.343 24.1712 1.63963 24.4951 1.85788C24.7012 1.99675 24.7434 2 26.353 2H28V3.647C28 5.25662 28.0033 5.29881 28.1421 5.50488C28.5903 6.16988 29.4097 6.16988 29.8579 5.50488C29.9993 5.29506 30 5.28263 30 3C30 0.717375 29.9993 0.704938 29.8579 0.495125C29.7798 0.379125 29.6209 0.22025 29.5049 0.142125C29.2951 0.00068751 29.2826 0 27 0C24.7174 0 24.7049 0.00068751 24.4951 0.142125ZM13.4375 5.089C10.6579 5.44406 8.24369 6.33531 5.95544 7.85106C3.64731 9.38 1.65444 11.5802 0.380188 14.0063C-0.121938 14.9623 -0.121938 15.0377 0.380188 15.9937C2.56262 20.149 6.58906 23.3188 11.1549 24.4764C14.2267 25.2551 16.9367 25.1488 20 24.1293C24.1198 22.7583 27.6229 19.7956 29.6198 15.9937C30.1219 15.0377 30.1219 14.9623 29.6198 14.0063C28.8822 12.602 27.9783 11.3638 26.8197 10.1706C24.1798 7.45212 20.8564 5.744 17.0625 5.15581C16.1696 5.01744 14.2718 4.98244 13.4375 5.089ZM16.2372 9.15462C17.4069 9.4035 18.3772 9.93062 19.2232 10.7767C21.5599 13.1134 21.5599 16.8866 19.2232 19.2232C17.9401 20.5064 16.1601 21.1406 14.3983 20.9424C12.9749 20.7822 11.7782 20.2139 10.78 19.2241C8.44194 16.9058 8.43944 13.1094 10.7744 10.7744C12.1968 9.35206 14.2727 8.7365 16.2372 9.15462ZM14.0452 11.0979C13.3431 11.268 12.7651 11.606 12.1853 12.1855C11.3606 13.0098 11.0019 13.8631 11.0019 15C11.0019 16.1377 11.3609 16.9912 12.1853 17.8132C13.0646 18.6899 13.9537 19.0369 15.1875 18.9847C16.2204 18.941 16.9781 18.6215 17.7421 17.9076C18.5683 17.1356 18.9981 16.1405 18.9981 15C18.9981 13.8739 18.6336 13.0081 17.8132 12.1853C17.2212 11.5916 16.6629 11.2678 15.9375 11.0973C15.4389 10.9801 14.5301 10.9804 14.0452 11.0979ZM0.495125 24.1421C0.379125 24.2202 0.22025 24.3791 0.142125 24.4951C0.00068751 24.7049 0 24.7174 0 27C0 29.2826 0.00068751 29.2951 0.142125 29.5049C0.22025 29.6209 0.379125 29.7798 0.495125 29.8579C0.704938 29.9993 0.717375 30 3 30C5.28263 30 5.29506 29.9993 5.50488 29.8579C6.16988 29.4097 6.16988 28.5903 5.50488 28.1421C5.29881 28.0033 5.25662 28 3.647 28H2V26.353C2 24.7434 1.99675 24.7012 1.85788 24.4951C1.63963 24.1712 1.343 24 1 24C0.797688 24 0.640188 24.0443 0.495125 24.1421ZM28.4951 24.1421C28.3791 24.2202 28.2202 24.3791 28.1421 24.4951C28.0033 24.7012 28 24.7434 28 26.353V28H26.353C24.7434 28 24.7012 28.0033 24.4951 28.1421C23.8301 28.5903 23.8301 29.4097 24.4951 29.8579C24.7049 29.9993 24.7174 30 27 30C29.2826 30 29.2951 29.9993 29.5049 29.8579C29.6209 29.7798 29.7798 29.6209 29.8579 29.5049C29.9993 29.2951 30 29.2826 30 27C30 24.7174 29.9993 24.7049 29.8579 24.4951C29.6396 24.1712 29.343 24 29 24C28.7977 24 28.6402 24.0443 28.4951 24.1421Z" fill="#00C500"/>
</svg>
