<svg width="200" height="80" viewBox="0 0 200 80" fill="none" xmlns="http://www.w3.org/2000/svg">
<path d="M70.8789 52.925H76.8198V42.7406H79.4028L85.7127 52.925H92.0594L85.0854 41.7075C88.185 40.785 90.5097 38.6816 90.5097 34.6965V34.5489C90.5097 29.0878 86.5614 26.5416 80.3253 26.5416H70.8789V52.925ZM76.8198 38.6816V31.1173H80.1777C83.0559 31.1173 84.6795 32.0398 84.6795 34.7334V34.881C84.6795 37.4271 83.1667 38.6816 80.1777 38.6816H76.8198Z" fill="#1C1C1C"/>
<path d="M102.255 53.3309C107.532 53.3309 110.853 51.0063 111.48 46.8365H106.425C106.093 48.4601 104.875 49.5302 102.403 49.5302C99.4879 49.5302 97.7536 47.6853 97.606 44.475H111.517V42.999C111.517 36.0986 107.089 33.1836 102.108 33.1836C96.499 33.1836 92.1816 37.1319 92.1816 43.2204V43.5155C92.1816 49.6779 96.4251 53.3309 102.255 53.3309ZM97.6798 41.1909C98.0856 38.4603 99.7093 36.8736 102.108 36.8736C104.654 36.8736 106.13 38.2758 106.314 41.1909H97.6798Z" fill="#1C1C1C"/>
<path d="M114.061 52.925H119.374V24.8811H114.061V52.925Z" fill="#1C1C1C"/>
<path d="M129.569 53.3309C132.743 53.3309 134.698 51.8549 135.694 49.8992V52.925H141.008V33.6264H135.694V44.9546C135.694 47.796 133.923 49.1981 131.673 49.1981C129.385 49.1981 128.314 47.9435 128.314 45.3236V33.6264H123.001V46.0616C123.001 51.1169 125.805 53.3309 129.569 53.3309Z" fill="#1C1C1C"/>
<path d="M144.635 52.925H149.986V41.523C149.986 38.9031 151.646 37.5746 153.712 37.5746C155.595 37.5746 156.739 38.6816 156.739 41.154V52.925H162.052V41.523C162.052 38.9031 163.712 37.5746 165.779 37.5746C167.697 37.5746 168.805 38.6816 168.805 41.154V52.925H174.119V40.5636C174.119 35.4345 171.351 33.1836 167.771 33.1836C165.336 33.1836 162.827 34.2167 161.277 36.5415C160.355 34.2537 158.436 33.1836 155.89 33.1836C153.011 33.1836 150.945 34.7702 149.986 36.5784V33.6264H144.635V52.925Z" fill="#1C1C1C"/>
<path d="M186.474 53.3309C191.752 53.3309 195.073 51.0063 195.699 46.8365H190.644C190.312 48.4601 189.094 49.5302 186.622 49.5302C183.707 49.5302 181.973 47.6853 181.825 44.475H195.737V42.999C195.737 36.0986 191.308 33.1836 186.327 33.1836C180.718 33.1836 176.4 37.1319 176.4 43.2204V43.5155C176.4 49.6779 180.644 53.3309 186.474 53.3309ZM181.899 41.1909C182.305 38.4603 183.929 36.8736 186.327 36.8736C188.873 36.8736 190.349 38.2758 190.534 41.1909H181.899Z" fill="#1C1C1C"/>
<path fill-rule="evenodd" clip-rule="evenodd" d="M50.4329 28.12L50.0741 27.4794C49.6115 26.7046 48.9589 26.0607 48.178 25.6087L30.9836 15.6919C30.205 15.2403 29.3213 15.0016 28.4211 15H27.678C26.7779 15.0016 25.8941 15.2403 25.1155 15.6919L7.92124 25.6344C7.14474 26.0834 6.49971 26.7285 6.05062 27.505L5.69188 28.1456C5.24023 28.9241 5.0016 29.808 5 30.708V50.5674C5.0016 51.4675 5.24023 52.3512 5.69188 53.1299L6.05062 53.7705C6.51132 54.538 7.15374 55.1804 7.92124 55.6411L25.1411 65.5579C25.9159 66.0189 26.8023 66.2583 27.7036 66.2498H28.4211C29.3213 66.2481 30.205 66.0095 30.9836 65.5579L48.178 55.6155C48.9621 55.1765 49.6096 54.5291 50.0485 53.7449L50.4329 53.1042C50.8791 52.3234 51.1174 51.441 51.1247 50.5417V30.6824C51.1232 29.7824 50.8846 28.8985 50.4329 28.12ZM27.678 20.1249H28.4211L43.4374 28.7861L28.0624 37.6522L12.6875 28.7861L27.678 20.1249ZM30.6249 59.8438L45.6154 51.1825L45.9998 50.5419V33.2195L30.6249 42.1112V59.8438Z" fill="#1C1C1C"/>
</svg>
