<svg width="140" height="56" viewBox="0 0 140 56" fill="none" xmlns="http://www.w3.org/2000/svg">
<path fill-rule="evenodd" clip-rule="evenodd" d="M38.5702 16.75L27.0607 39.25H16.25L21.0667 29.925H20.8506C16.8769 35.0835 10.9479 38.4794 2.5 39.25V30.0541C2.5 30.0541 7.90431 29.7349 11.0814 26.3947H2.5V16.7502H12.1445V24.6826L12.361 24.6818L16.3021 16.7502H23.596V24.6323L23.8124 24.632L27.9014 16.75H38.5702Z" fill="#1C1C1C"/>
<path d="M101.332 36.7665H104.438V18.9375H101.332V36.7665Z" fill="#1C1C1C"/>
<path fill-rule="evenodd" clip-rule="evenodd" d="M84.2105 36.5845C84.8855 36.8651 85.572 37.0055 86.2699 37.0055C87.4228 37.0055 88.4544 36.7248 89.3647 36.1635C90.2748 35.6022 90.9803 34.8286 91.4809 33.8425C91.9815 32.8488 92.2318 31.7224 92.2318 30.4632C92.2318 29.2041 91.9739 28.0777 91.4582 27.0841C90.9423 26.0904 90.2255 25.3205 89.3077 24.7744C88.3899 24.2207 87.3469 23.9476 86.1788 23.9552C85.4355 23.9552 84.7225 24.0993 84.0398 24.3875C83.3572 24.6758 82.7883 25.0854 82.3332 25.6163C82.298 25.6568 82.2639 25.6976 82.2308 25.7388V18.949H79.1133V36.7666H82.208L82.2018 35.1021C82.2818 35.2002 82.3674 35.2961 82.4583 35.3899C82.9513 35.8981 83.5354 36.2962 84.2105 36.5845ZM87.3963 33.706C86.888 34.017 86.3078 34.1725 85.6554 34.1725C85.0107 34.1725 84.419 34.0131 83.8805 33.6946C83.3419 33.3684 82.9134 32.9247 82.5948 32.3633C82.2838 31.8021 82.1283 31.1648 82.1283 30.4518C82.1208 29.7388 82.2724 29.1017 82.5834 28.5404C82.902 27.9715 83.3305 27.5316 83.8692 27.2206C84.4077 26.902 85.0032 26.7465 85.6554 26.7541C86.3078 26.7465 86.888 26.8982 87.3963 27.2092C87.912 27.5126 88.3064 27.9488 88.5795 28.5177C88.8602 29.079 89.0005 29.7237 89.0005 30.4518C89.0005 31.1801 88.8602 31.8248 88.5795 32.3861C88.3064 32.9475 87.912 33.3874 87.3963 33.706Z" fill="#1C1C1C"/>
<path d="M43.0703 20.0184H46.6202L49.7957 31.6154L53.1738 20.0184H56.1321L59.7957 31.3827L62.8449 20.0184H66.0989L61.2976 36.7665H58.2369L54.5114 25.6645L51.0917 36.7665H47.9969L43.0703 20.0184Z" fill="#1C1C1C"/>
<path fill-rule="evenodd" clip-rule="evenodd" d="M71.3398 37.0623C70.1033 37.0699 68.9883 36.7968 67.9947 36.2431C67.0086 35.6818 66.2312 34.9043 65.6622 33.9106C65.1009 32.917 64.8203 31.783 64.8203 30.5086C64.8203 29.2723 65.1086 28.1535 65.6851 27.1523C66.2614 26.151 67.0427 25.3697 68.0288 24.8084C69.0149 24.2471 70.1147 23.9665 71.3283 23.9665C72.6937 23.9665 73.8883 24.2699 74.9123 24.8767C75.9439 25.4835 76.7138 26.3444 77.2221 27.4595C77.7378 28.5669 77.9237 29.8374 77.7796 31.271H68.0337C68.0609 31.8421 68.2034 32.3618 68.4612 32.8298C68.7494 33.3455 69.1514 33.7475 69.6672 34.0358C70.1831 34.324 70.7594 34.4681 71.3967 34.4681C71.8821 34.4605 72.3334 34.3771 72.7506 34.2179C73.1678 34.051 73.5204 33.8273 73.8087 33.5465C74.1046 33.2659 74.3132 32.9474 74.4346 32.5909H77.6886C77.4913 33.4631 77.0969 34.2406 76.5053 34.9233C75.9136 35.5984 75.1703 36.1255 74.2752 36.5048C73.3802 36.884 72.4017 37.0699 71.3398 37.0623ZM68.4726 28.1421C68.2908 28.4591 68.1648 28.8004 68.0947 29.1661H74.5551C74.5082 28.7041 74.3656 28.2832 74.1273 27.9032C73.8542 27.4557 73.4826 27.1105 73.0123 26.8678C72.5421 26.6175 72.0111 26.4924 71.4194 26.4924C70.7898 26.4924 70.2172 26.6365 69.7013 26.9247C69.1856 27.2129 68.7759 27.6188 68.4726 28.1421Z" fill="#1C1C1C"/>
<path d="M94.5181 24.2282C94.5181 23.2118 94.7494 22.3092 95.2121 21.5203C95.6747 20.7239 96.3234 20.1057 97.1577 19.6657C97.9996 19.2182 98.982 18.9868 100.104 18.9717V21.7365C99.5811 21.7441 99.1336 21.854 98.762 22.0664C98.3979 22.2712 98.1173 22.5708 97.92 22.9653C97.7385 23.3284 97.6405 23.7494 97.6261 24.2282H100.036V26.8565H97.6242V36.7665H94.5181V26.8565H92.5156V24.2282H94.5181Z" fill="#1C1C1C"/>
<path fill-rule="evenodd" clip-rule="evenodd" d="M112.334 37.0395C111.067 37.0395 109.933 36.7626 108.932 36.209C107.938 35.6476 107.157 34.874 106.588 33.8879C106.027 32.8942 105.746 31.7679 105.746 30.5086C105.746 29.242 106.027 28.1118 106.588 27.1181C107.157 26.1169 107.938 25.3394 108.932 24.7857C109.933 24.2319 111.067 23.9551 112.334 23.9551C113.608 23.9551 114.746 24.2319 115.747 24.7857C116.756 25.3394 117.541 26.1131 118.102 27.1067C118.664 28.1004 118.948 29.2344 118.956 30.5086C118.948 31.7679 118.664 32.8942 118.102 33.8879C117.549 34.874 116.767 35.6476 115.758 36.209C114.75 36.7626 113.608 37.0395 112.334 37.0395ZM112.334 34.1837C113.001 34.1837 113.593 34.032 114.109 33.7286C114.625 33.4176 115.023 32.9852 115.303 32.4315C115.584 31.8702 115.724 31.2292 115.724 30.5086C115.724 29.7805 115.584 29.1357 115.303 28.5745C115.023 28.0132 114.625 27.5808 114.109 27.2774C113.593 26.9664 113.001 26.8109 112.334 26.8109C111.674 26.8109 111.086 26.9664 110.57 27.2774C110.062 27.5808 109.668 28.0132 109.387 28.5745C109.106 29.1357 108.97 29.7805 108.977 30.5086C108.977 31.2292 109.118 31.8702 109.398 32.4315C109.687 32.9852 110.081 33.4176 110.582 33.7286C111.09 34.032 111.674 34.1837 112.334 34.1837Z" fill="#1C1C1C"/>
<path d="M122.314 24.2281H118.855L122.599 36.7665H125.625L128.087 28.7582L130.745 36.7665H133.726L137.481 24.2281H134.352L132.222 32.0325L129.868 24.2281H126.843L124.5 32.2044L122.314 24.2281Z" fill="#1C1C1C"/>
</svg>
