<svg width="18" height="18" viewBox="0 0 18 18" fill="none" xmlns="http://www.w3.org/2000/svg">
<path fill-rule="evenodd" clip-rule="evenodd" d="M2.51367 1.31875C2.04961 2.04405 1.63512 2.71197 1.59258 2.80307C1.09315 3.87232 1.62098 5.1012 2.76216 5.52595C3.03469 5.62739 3.64289 5.63737 3.9375 5.54529C4.57077 5.34729 5.12307 4.76819 5.29003 4.12713C5.39536 3.72257 5.34312 3.20061 5.15742 2.80307C5.07512 2.62685 3.40474 0 3.375 0C3.36533 0 2.97773 0.593448 2.51367 1.31875ZM13.7637 1.31875C13.2996 2.04405 12.8851 2.71197 12.8426 2.80307C12.3426 3.87345 12.8689 5.09899 14.0122 5.52626C14.2839 5.62788 14.8917 5.63769 15.1875 5.54525C15.8178 5.34831 16.3738 4.76534 16.54 4.12713C16.6454 3.72257 16.5931 3.20061 16.4074 2.80307C16.3251 2.62685 14.6547 0 14.625 0C14.6153 0 14.2277 0.593448 13.7637 1.31875ZM7.92773 3.00704C7.34766 3.88741 6.81342 4.7215 6.74058 4.86059C6.10179 6.07987 6.61426 7.55281 7.89258 8.17161C8.6284 8.52779 9.3716 8.52779 10.1074 8.17161C11.3857 7.55281 11.8982 6.07987 11.2594 4.86059C11.1266 4.60701 9.03301 1.40637 9 1.40637C8.99033 1.40637 8.50781 2.12668 7.92773 3.00704ZM2.7334 3.50088C2.77689 3.54874 2.8125 3.62813 2.8125 3.67732C2.8125 3.92366 3.03855 4.16036 3.32483 4.21388C3.51046 4.24855 3.65625 4.37569 3.65625 4.50283C3.65625 4.60072 3.46904 4.77944 3.36649 4.77944C3.21771 4.77944 2.90682 4.66967 2.74996 4.56173C2.39491 4.31743 2.15128 3.75745 2.30077 3.52926C2.41404 3.3564 2.59147 3.34473 2.7334 3.50088ZM15.6709 3.50088C15.7648 3.60415 15.7684 3.67201 15.6941 3.93688C15.5836 4.33079 15.2304 4.65515 14.8093 4.74938C14.5856 4.79945 14.4716 4.75821 14.3798 4.59397C14.3317 4.5081 14.3317 4.4882 14.3798 4.40234C14.4422 4.29077 14.5537 4.22791 14.7412 4.19865C14.9236 4.17021 15.1408 3.95291 15.1693 3.77053C15.1982 3.58513 15.2621 3.46966 15.3643 3.41822C15.4734 3.36337 15.5695 3.38928 15.6709 3.50088ZM10.308 5.90642C10.4056 6.004 10.4133 6.02822 10.3935 6.17333C10.3133 6.75778 9.80462 7.20981 9.1324 7.29381C8.94122 7.31768 8.92723 7.31399 8.82541 7.21217C8.69161 7.07834 8.69055 6.98221 8.82151 6.85124C8.90012 6.77262 8.95665 6.74846 9.06198 6.74846C9.28413 6.74846 9.61973 6.5606 9.74197 6.36781C9.79794 6.27952 9.84375 6.16169 9.84375 6.10596C9.84375 5.98417 10.0133 5.79911 10.125 5.79911C10.1667 5.79911 10.249 5.84739 10.308 5.90642ZM0 9.62548C0 10.6095 0.0375469 10.9562 0.200109 11.4734C0.639562 12.8717 1.78429 14.0082 3.17862 14.4306C3.79178 14.6164 3.91989 14.6245 6.22726 14.6245C7.40422 14.6245 8.36715 14.6127 8.36708 14.5982C8.36687 14.55 7.79899 13.8035 7.5028 13.462C6.64 12.4673 5.38161 11.4542 4.10428 10.7261C3.99298 10.6627 3.88621 10.5814 3.86698 10.5455C3.78049 10.3838 3.86835 10.1825 4.04332 10.1413C4.14773 10.1167 4.28808 10.1869 4.89709 10.5679C6.34159 11.4717 7.59291 12.6015 8.47097 13.7946L8.70117 14.1074L8.71158 13.4781C8.72311 12.7812 8.67196 12.354 8.51892 11.8686C8.08066 10.4788 6.95587 9.35393 5.56808 8.91762C4.95798 8.72585 4.82217 8.71748 2.31412 8.71748H0V9.62548ZM13.0254 8.77427C11.3444 9.07584 9.98775 10.264 9.47658 11.8824C9.32639 12.3579 9.27742 12.773 9.28874 13.4742L9.29883 14.0996L9.52675 13.7907C10.6585 12.257 12.487 10.7825 14.494 9.78518C14.8917 9.58758 14.9117 9.5816 15.0029 9.63283C15.0551 9.66215 15.122 9.72928 15.1515 9.78198C15.2371 9.93507 15.1523 10.0405 14.7821 10.2409C13.8849 10.7268 13.6451 10.8679 13.0957 11.2328C12.0577 11.9222 11.1422 12.7122 10.4518 13.5143C10.1421 13.8742 9.63281 14.5507 9.63281 14.6023C9.63281 14.6146 10.5951 14.6245 11.7712 14.6245C14.0874 14.6245 14.2453 14.6143 14.8493 14.4244C16.2372 13.9881 17.3636 12.8615 17.7999 11.4734C17.9625 10.9562 18 10.6095 18 9.62548V8.71748L15.6533 8.72065C13.7796 8.72314 13.25 8.73397 13.0254 8.77427ZM3.27224 9.69928C3.38435 9.81141 3.3956 9.86444 3.33527 9.99682C3.27892 10.1206 3.12244 10.1795 2.99285 10.1258C2.89403 10.0849 2.8125 9.96285 2.8125 9.85586C2.8125 9.77572 3.00684 9.59651 3.09375 9.59651C3.13541 9.59651 3.21571 9.64275 3.27224 9.69928ZM8.29688 16.5936V18H9H9.70312V16.5936V15.1871H9H8.29688V16.5936Z" fill="#02B1EB"/>
</svg>
