<svg width="18" height="19" viewBox="0 0 18 19" fill="none" xmlns="http://www.w3.org/2000/svg">
<path fill-rule="evenodd" clip-rule="evenodd" d="M3.52603 0.526501C2.61154 0.606045 1.46693 0.898478 0.55267 1.28621C0.218744 1.42781 0.0784185 1.55951 0.0174943 1.78847C-0.026051 1.95216 0.015062 2.19696 0.103526 2.30048C0.611711 2.89532 0.772437 3.09222 1.06682 3.48054C1.60298 4.18783 1.80462 4.50718 2.22065 5.30789C2.66438 6.16196 2.99258 6.67711 3.37598 7.1212C4.18466 8.05792 5.11312 8.49396 6.00917 8.3579C6.32258 8.31031 6.72328 8.18046 6.72328 8.1265C6.72328 8.10941 6.60037 7.84983 6.45012 7.54961C5.9652 6.58071 5.27439 5.78535 4.38889 5.17635C3.86933 4.81903 3.76749 4.68812 3.79005 4.40638C3.81814 4.0557 4.05654 3.84014 4.41636 3.84014C4.64789 3.84014 4.99567 4.04556 5.04851 4.21349C5.10343 4.38803 5.21025 4.48871 5.64445 4.77509C6.12392 5.0913 6.86066 5.81325 7.13684 6.23746C7.24241 6.39957 7.42848 6.7306 7.55032 6.97308C7.67221 7.21556 7.78108 7.40475 7.79229 7.39351C7.81987 7.36592 8.02516 7.86995 8.1538 8.28107C8.52331 9.46189 8.68521 10.9425 8.60487 12.4068C8.56889 13.0629 8.48027 13.8832 8.44112 13.9224C8.43276 13.9308 8.22351 13.9899 7.97613 14.0538C7.42569 14.196 7.21428 14.2778 6.6802 14.5553C5.9346 14.9428 5.23226 15.5463 4.69999 16.257C4.36308 16.7068 3.93316 17.5561 3.91158 17.8144C3.88969 18.0766 4.01103 18.2896 4.25135 18.4111L4.4271 18.5L9.47569 18.4897L14.5243 18.4795L14.6351 18.3973C15.0008 18.1257 15.0111 17.8371 14.679 17.1593C13.9984 15.7704 12.7477 14.6685 11.2922 14.1756C10.9158 14.0482 10.2197 13.9014 9.98717 13.9004C9.75293 13.8994 9.75085 13.8932 9.80927 13.3705C9.83822 13.1111 9.87517 12.4979 9.89137 12.0078L9.9208 11.1166L10.1454 10.6715C10.269 10.4267 10.5093 10.0407 10.6796 9.81378C10.9914 9.39806 11.7895 8.52009 11.9006 8.4705C12.1129 8.37578 12.4473 8.49227 12.598 8.71333C12.6967 8.85831 12.7188 9.16768 12.6409 9.3153C12.616 9.36249 12.4224 9.58332 12.2107 9.806C11.9989 10.0286 11.7893 10.262 11.7449 10.3244L11.6641 10.438L11.8419 10.5424C12.1831 10.7427 12.4081 10.8063 12.8453 10.8262C13.3324 10.8484 13.7415 10.7632 14.2041 10.5434C14.8644 10.2296 15.513 9.64554 15.8217 9.08657C16.3322 8.16211 16.7888 7.67761 17.4979 7.30807C17.8298 7.13511 17.9328 7.02582 17.9866 6.78998C18.0579 6.47723 17.8477 6.16263 17.2829 5.7365C15.7474 4.57824 13.3861 4.43008 11.8375 5.3949C11.5231 5.59077 11.1429 5.97556 10.9862 6.25648C10.7586 6.66434 10.607 7.26473 10.607 7.75802C10.607 7.9258 10.5884 7.95739 10.301 8.27592C10.1327 8.46248 9.92696 8.69989 9.84375 8.80353C9.76058 8.90712 9.68044 8.97786 9.66568 8.96073C9.65093 8.94355 9.59907 8.76152 9.55043 8.55617C9.40814 7.9557 9.16813 7.27832 8.89725 6.71275L8.64492 6.18589L8.83903 5.73025C9.13588 5.03341 9.20854 4.70879 9.2094 4.07594C9.21003 3.60536 9.19834 3.50986 9.10575 3.23099C8.92796 2.69529 8.63896 2.28185 8.17895 1.905C6.9137 0.868452 5.2525 0.376295 3.52603 0.526501Z" fill="#00C500"/>
</svg>
