<svg width="86" height="23" viewBox="0 0 86 23" fill="none" xmlns="http://www.w3.org/2000/svg">
<path fill-rule="evenodd" clip-rule="evenodd" d="M20.1341 6.14684L19.9752 5.8726C19.7701 5.54095 19.4809 5.26533 19.1349 5.07184L11.515 0.826691C11.1699 0.633362 10.7783 0.531213 10.3794 0.530518H10.05C9.65114 0.531213 9.25949 0.633362 8.91443 0.826691L1.29458 5.08281C0.950467 5.27501 0.664616 5.55117 0.465598 5.88357L0.306613 6.15781C0.106459 6.49106 0.00070906 6.86943 0 7.25469V15.756C0.00070906 16.1413 0.106459 16.5196 0.306613 16.8529L0.465598 17.1271C0.669762 17.4557 0.954456 17.7307 1.29458 17.9279L8.92579 22.173C9.26913 22.3703 9.66194 22.4728 10.0614 22.4692H10.3794C10.7783 22.4685 11.1699 22.3663 11.515 22.173L19.1349 17.9169C19.4824 17.729 19.7693 17.4519 19.9638 17.1162L20.1341 16.8419C20.3319 16.5077 20.4375 16.1299 20.4408 15.745V7.24372C20.4401 6.85846 20.3343 6.48009 20.1341 6.14684ZM10.05 2.72434H10.3794L17.034 6.43199L10.2204 10.2273L3.40681 6.43199L10.05 2.72434ZM11.356 19.7269L17.9992 16.0193L18.1696 15.745V8.3298L11.356 12.1361V19.7269Z" fill="#1C1C1C"/>
<path d="M23.0469 17.1468H25.6796V12.7871H26.8243L29.6206 17.1468H32.4333L29.3427 12.3449C30.7163 11.95 31.7465 11.0496 31.7465 9.34367V9.28047C31.7465 6.94271 29.9968 5.85278 27.2332 5.85278H23.0469V17.1468ZM25.6796 11.0496V7.81149H27.1677C28.4433 7.81149 29.1628 8.20638 29.1628 9.35945V9.42265C29.1628 10.5126 28.4923 11.0496 27.1677 11.0496H25.6796Z" fill="#1C1C1C"/>
<path d="M39.5029 15.812C41.8413 15.812 43.313 14.8169 43.591 13.0319H41.3507C41.2035 13.727 40.6639 14.1851 39.5683 14.1851C38.2764 14.1851 37.5079 13.3953 37.4425 12.021H43.6074V11.3892C43.6074 8.43533 41.6451 7.1875 39.4375 7.1875C36.9519 7.1875 35.0386 8.87764 35.0386 11.484V11.6103C35.0386 14.2482 36.9191 15.812 39.5029 15.812ZM37.4751 10.6152C37.655 9.44628 38.3745 8.76709 39.4375 8.76709C40.5658 8.76709 41.2199 9.3673 41.3017 10.6152H37.4751Z" fill="#1C1C1C"/>
<path d="M46.2129 17.5021H48.5677V5.49731H46.2129V17.5021Z" fill="#1C1C1C"/>
<path d="M54.0845 15.7174C55.491 15.7174 56.3574 15.0856 56.7989 14.2485V15.5437H59.1537V7.28247H56.7989V12.1318C56.7989 13.3481 56.0139 13.9483 55.0168 13.9483C54.0031 13.9483 53.5284 13.4112 53.5284 12.2897V7.28247H51.1738V12.6057C51.1738 14.7697 52.4166 15.7174 54.0845 15.7174Z" fill="#1C1C1C"/>
<path d="M61.7593 15.7254H64.1308V10.8445C64.1308 9.72302 64.8664 9.15433 65.7821 9.15433C66.6163 9.15433 67.1232 9.6282 67.1232 10.6866V15.7254H69.4781V10.8445C69.4781 9.72302 70.2137 9.15433 71.1294 9.15433C71.9797 9.15433 72.4705 9.6282 72.4705 10.6866V15.7254H74.8254V10.4338C74.8254 8.2382 73.5989 7.27466 72.0124 7.27466C70.9333 7.27466 69.8215 7.71691 69.1346 8.71207C68.7258 7.73275 67.8755 7.27466 66.7471 7.27466C65.4713 7.27466 64.5556 7.95385 64.1308 8.72786V7.46419H61.7593V15.7254Z" fill="#1C1C1C"/>
<path d="M81.895 15.812C84.2338 15.812 85.7056 14.8169 85.9832 13.0319H83.743C83.5956 13.727 83.0561 14.1851 81.9603 14.1851C80.6685 14.1851 79.9002 13.3953 79.8348 12.021H85.9998V11.3892C85.9998 8.43533 84.0371 7.1875 81.8296 7.1875C79.344 7.1875 77.4307 8.87764 77.4307 11.484V11.6103C77.4307 14.2482 79.3113 15.812 81.895 15.812ZM79.8675 10.6152C80.0475 9.44628 80.7671 8.76709 81.8296 8.76709C82.958 8.76709 83.6122 9.3673 83.6942 10.6152H79.8675Z" fill="#1C1C1C"/>
</svg>
