<svg width="180" height="178" viewBox="0 0 180 178" fill="none" xmlns="http://www.w3.org/2000/svg">
<path d="M0 28.7479C0 13.0885 12.7245 0.393951 28.4211 0.393951H180V149.646C180 165.306 167.275 178 151.579 178H0V28.7479Z" fill="white"/>
<path fill-rule="evenodd" clip-rule="evenodd" d="M178.855 2.57113C177.02 7.08059 171.322 17.974 168.187 22.9663C157.863 39.4104 145.55 53.2058 130.508 65.1802C106.62 84.1979 77.6124 96.3818 44.8026 101.179C34.0082 102.757 26.2543 103.277 12.9284 103.314L0.00157959 103.349L0.00078904 140.662L0 177.975L76.4803 177.969C159.188 177.961 155.226 178.06 160.644 175.876C164.612 174.278 167.364 172.436 170.747 169.115C175.849 164.108 178.704 158.416 179.608 151.45C179.891 149.274 179.989 124.456 179.914 74.2437L179.803 0.243744L178.855 2.57113Z" fill="#00C500"/>
<path fill-rule="evenodd" clip-rule="evenodd" d="M22.5679 0.738831C11.9906 3.33046 3.31305 11.9906 0.795415 22.4686C0.0390994 25.6155 0.00278389 27.0919 2.07312e-05 54.6133C-0.00155822 70.4789 0.0872576 83.4595 0.197389 83.4595C0.307126 83.4595 2.12805 83.7159 4.24344 84.029C11.7683 85.1431 19.6559 85.5369 29.9629 85.3136C44.4083 85.0009 54.0344 83.7604 67.3627 80.4934C107.209 70.7274 140.897 47.7143 167.364 12.1808C171.081 7.18975 175.655 0.572251 175.655 0.184747C175.655 0.0681809 141.861 -0.0141231 100.556 0.00202288C29.6621 0.0291954 25.2959 0.0705443 22.5679 0.738831Z" fill="#02B1EB"/>
</svg>
